<svg xmlns="http://www.w3.org/2000/svg" viewBox="0 0 680 400" font-family="'Inter',-apple-system,'PingFang SC','Microsoft YaHei',sans-serif">
  <defs>
    <linearGradient id="bg" x1="0" y1="0" x2="0" y2="1">
      <stop offset="0%" stop-color="#0f172a"/>
      <stop offset="100%" stop-color="#070b18"/>
    </linearGradient>
    <linearGradient id="accent" x1="0" y1="0" x2="1" y2="1">
      <stop offset="0%" stop-color="#00e5ff"/>
      <stop offset="100%" stop-color="#a855f7"/>
    </linearGradient>
  </defs>
  <rect width="680" height="400" fill="url(#bg)" rx="14"/>
  <text x="30" y="42" fill="#f0f4ff" font-size="20" font-weight="700">🔗 音频合并 - 结果</text>
  <text x="30" y="66" fill="#6b7a9f" font-size="13">合并完成，可试听并下载合并后的完整音频文件。</text>
  <rect x="30" y="85" width="620" height="290" fill="rgba(14,22,41,0.8)" rx="14" stroke="rgba(255,255,255,0.06)" stroke-width="1"/>
  <text x="50" y="118" fill="#f0f4ff" font-size="15" font-weight="700">合并结果</text>
  <rect x="50" y="132" width="580" height="60" rx="10" fill="rgba(10,14,26,0.6)" stroke="rgba(255,255,255,0.05)" stroke-width="1"/>
  <circle cx="90" cy="162" r="18" fill="rgba(0,229,255,0.12)" stroke="#00e5ff" stroke-width="2"/>
  <text x="90" y="168" fill="#00e5ff" font-size="16" text-anchor="middle">▶</text>
  <text x="125" y="156" fill="#f0f4ff" font-size="13">合并后的音频</text>
  <text x="125" y="176" fill="#6b7a9f" font-size="11">3 个文件 · 共 2:43</text>
  <rect x="320" y="158" width="280" height="6" rx="3" fill="#1e293b"/>
  <rect x="320" y="158" width="200" height="6" rx="3" fill="#00e5ff"/>
  <circle cx="520" cy="161" r="8" fill="#3b82f6" stroke="#f0f4ff" stroke-width="2"/>
  <text x="520" y="180" fill="#4a5a7a" font-size="11">1:30 / 2:43</text>
  <rect x="50" y="205" width="180" height="50" rx="8" fill="rgba(0,229,255,0.04)" stroke="rgba(0,229,255,0.12)" stroke-width="1"/>
  <text x="140" y="225" fill="#6b7a9f" font-size="10" text-anchor="middle">总时长</text>
  <text x="140" y="245" fill="#00e5ff" font-size="16" font-weight="700" text-anchor="middle">02:43</text>
  <rect x="250" y="205" width="180" height="50" rx="8" fill="rgba(168,85,247,0.04)" stroke="rgba(168,85,247,0.12)" stroke-width="1"/>
  <text x="340" y="225" fill="#6b7a9f" font-size="10" text-anchor="middle">合并文件数</text>
  <text x="340" y="245" fill="#a855f7" font-size="16" font-weight="700" text-anchor="middle">3 个</text>
  <rect x="450" y="205" width="180" height="50" rx="8" fill="rgba(34,197,94,0.04)" stroke="rgba(34,197,94,0.12)" stroke-width="1"/>
  <text x="540" y="225" fill="#6b7a9f" font-size="10" text-anchor="middle">输出格式</text>
  <text x="540" y="245" fill="#22c55e" font-size="16" font-weight="700" text-anchor="middle">MP3</text>
  <rect x="200" y="272" width="280" height="46" rx="999" fill="url(#accent)"/>
  <text x="340" y="300" fill="#fff" font-size="15" font-weight="700" text-anchor="middle">⬇ 下载合并后的音频</text>
  <text x="340" y="340" fill="#4a5a7a" font-size="11" text-anchor="middle">支持 MP3、WAV、OGG、M4A 格式混搭合并</text>
</svg>
