<svg xmlns="http://www.w3.org/2000/svg" viewBox="0 0 680 400" font-family="'Inter',-apple-system,'PingFang SC','Microsoft YaHei',sans-serif">
<defs><linearGradient id="bg" x1="0" y1="0" x2="0" y2="1"><stop offset="0%" stop-color="#0f172a"/><stop offset="100%" stop-color="#070b18"/></linearGradient></defs>
<rect width="680" height="400" fill="url(#bg)" rx="14"/>
<text x="30" y="42" fill="#f0f4ff" font-size="20" font-weight="700">🎰 决策转盘</text><text x="30" y="66" fill="#6b7a9f" font-size="13">输入选项，点击转盘随机选择，解决选择困难症。</text>
<rect x="30" y="85" width="620" height="290" fill="rgba(14,22,41,0.8)" rx="14" stroke="rgba(255,255,255,0.06)" stroke-width="1"/>
<text x="50" y="118" fill="#f0f4ff" font-size="15" font-weight="700">选项</text>
<rect x="50" y="128" width="400" height="120" fill="#0a0e1a" rx="8" stroke="rgba(255,255,255,0.06)" stroke-width="1"/>
<text x="65" y="150" fill="#6b7a9f" font-size="12">吃饭</text>
<text x="65" y="170" fill="#6b7a9f" font-size="12">睡觉</text>
<text x="65" y="190" fill="#6b7a9f" font-size="12">学习</text>
<text x="65" y="210" fill="#6b7a9f" font-size="12">运动</text>
<text x="65" y="230" fill="#6b7a9f" font-size="12">看电影</text>
<rect x="480" y="128" width="150" height="120" fill="#0a0e1a" rx="8" stroke="rgba(0,229,255,0.15)" stroke-width="1"/>
<text x="555" y="170" fill="#00e5ff" font-size="14" font-weight="700" text-anchor="middle">🎰</text>
<text x="555" y="195" fill="#00e5ff" font-size="14" font-weight="700" text-anchor="middle">转一次</text>
<text x="340" y="280" fill="#f59e0b" font-size="22" font-weight="800" text-anchor="middle">🎉 吃饭</text>
<text x="340" y="310" fill="#6b7a9f" font-size="11" text-anchor="middle">💡 支持快捷预设：吃什么 去哪儿玩 周末干啥</text>
<rect x="50" y="330" width="90" height="24" fill="rgba(255,255,255,0.04)" rx="6"/><text x="95" y="347" fill="#6b7a9f" font-size="11" text-anchor="middle">🍔 吃什么</text>
<rect x="150" y="330" width="90" height="24" fill="rgba(255,255,255,0.04)" rx="6"/><text x="195" y="347" fill="#6b7a9f" font-size="11" text-anchor="middle">📍 去哪儿</text>
<rect x="250" y="330" width="100" height="24" fill="rgba(255,255,255,0.04)" rx="6"/><text x="300" y="347" fill="#6b7a9f" font-size="11" text-anchor="middle">🎯 周末干啥</text>
</svg>
