<svg xmlns="http://www.w3.org/2000/svg" viewBox="0 0 680 400" font-family="'Inter',-apple-system,'PingFang SC','Microsoft YaHei',sans-serif">
  <defs>
    <linearGradient id="bg" x1="0" y1="0" x2="0" y2="1">
      <stop offset="0%" stop-color="#0f172a"/>
      <stop offset="100%" stop-color="#070b18"/>
    </linearGradient>
    <linearGradient id="accent" x1="0" y1="0" x2="1" y2="1">
      <stop offset="0%" stop-color="#3b82f6"/>
      <stop offset="100%" stop-color="#8b5cf6"/>
    </linearGradient>
    <linearGradient id="urlBg" x1="0" y1="0" x2="1" y2="1">
      <stop offset="0%" stop-color="#1e293b"/>
      <stop offset="100%" stop-color="#0f172a"/>
    </linearGradient>
  </defs>
  <rect width="680" height="400" fill="url(#bg)" rx="14"/>
  <text x="30" y="42" fill="#f0f4ff" font-size="20" font-weight="700">&#x1F4C4; XML Sitemap &#x751F;&#x6210;</text>
  <text x="30" y="66" fill="#6b7a9f" font-size="13">&#x751F;&#x6210; XML &#x683C;&#x5F0F;&#x7684;&#x7F51;&#x7AD9;&#x5730;&#x56FE;&#xFF0C;&#x63D0;&#x4EA4;&#x7ED9;&#x641C;&#x7D22;&#x5F15;&#x64CE;&#x52A0;&#x901F;&#x6536;&#x5F55;&#x3002;</text>
  <rect x="30" y="82" width="620" height="296" fill="rgba(14,22,41,0.8)" rx="14" stroke="rgba(255,255,255,0.06)" stroke-width="1"/>
  <text x="50" y="112" fill="#f0f4ff" font-size="15" font-weight="700">XML Sitemap &#x751F;&#x6210;&#x5668;</text>
  <!-- Domain input -->
  <rect x="50" y="125" width="400" height="34" fill="#0a0e1a" rx="8" stroke="rgba(255,255,255,0.06)" stroke-width="1"/>
  <text x="65" y="147" fill="#4a5a7a" font-size="12">https://example.com</text>
  <!-- URL list -->
  <rect x="50" y="172" width="400" height="195" fill="#0a0e1a" rx="10" stroke="rgba(255,255,255,0.06)" stroke-width="1"/>
  <text x="64" y="194" fill="#6b7a9f" font-size="11">&#x7F51;&#x5740;&#x5217;&#x8868; (6 &#x4E2A;&#x9875;&#x9762;)</text>
  <!-- URL items -->
  <rect x="64" y="204" width="372" height="28" rx="5" fill="rgba(255,255,255,0.02)"/>
  <text x="74" y="222" fill="#f0f4ff" font-size="11">https://example.com</text>
  <text x="300" y="222" fill="#4a5a7a" font-size="10">priority 1.0</text>
  <rect x="64" y="238" width="372" height="28" rx="5" fill="rgba(255,255,255,0.02)"/>
  <text x="74" y="256" fill="#f0f4ff" font-size="11">https://example.com/about</text>
  <text x="300" y="256" fill="#4a5a7a" font-size="10">priority 0.8</text>
  <rect x="64" y="272" width="372" height="28" rx="5" fill="rgba(255,255,255,0.02)"/>
  <text x="74" y="290" fill="#f0f4ff" font-size="11">https://example.com/blog</text>
  <text x="300" y="290" fill="#4a5a7a" font-size="10">priority 0.9</text>
  <rect x="64" y="306" width="372" height="28" rx="5" fill="rgba(255,255,255,0.02)"/>
  <text x="74" y="324" fill="#f0f4ff" font-size="11">https://example.com/contact</text>
  <text x="300" y="324" fill="#4a5a7a" font-size="10">priority 0.6</text>
  <!-- Options panel -->
  <rect x="465" y="125" width="170" height="242" fill="#0a0e1a" rx="10" stroke="rgba(255,255,255,0.04)" stroke-width="1"/>
  <text x="479" y="148" fill="#6b7a9f" font-size="11">&#x9009;&#x9879;</text>
  <!-- Checkboxes -->
  <rect x="479" y="158" width="14" height="14" rx="3" fill="url(#accent)"/>
  <text x="500" y="170" fill="#f0f4ff" font-size="11">&#x5305;&#x542B; lastmod</text>
  <rect x="479" y="182" width="14" height="14" rx="3" fill="url(#accent)"/>
  <text x="500" y="194" fill="#f0f4ff" font-size="11">&#x5305;&#x542B; changefreq</text>
  <rect x="479" y="206" width="14" height="14" rx="3" fill="#1a2540" stroke="rgba(255,255,255,0.1)" stroke-width="1"/>
  <text x="500" y="218" fill="#6b7a9f" font-size="11">&#x5305;&#x542B; priority</text>
  <rect x="479" y="230" width="14" height="14" rx="3" fill="url(#accent)"/>
  <text x="500" y="242" fill="#f0f4ff" font-size="11">&#x5305;&#x542B;&#x56FE;&#x7247;</text>
  <!-- Generate button -->
  <rect x="479" y="260" width="142" height="34" rx="8" fill="url(#accent)"/>
  <text x="505" y="282" fill="#fff" font-size="12" font-weight="600">&#x751F;&#x6210; Sitemap</text>
  <!-- Total URLs -->
  <rect x="479" y="306" width="142" height="34" rx="8" fill="rgba(34,197,94,0.08)" stroke="rgba(34,197,94,0.15)" stroke-width="1"/>
  <text x="510" y="324" fill="#22c55e" font-size="12" font-weight="600">&#x5171; 6 &#x4E2A; URL</text>
  <text x="505" y="337" fill="#4a5a7a" font-size="9">XML &#x683C;&#x5F0F;&#x8F93;&#x51FA;</text>
</svg>